<svg width="20" height="30" viewBox="0 0 20 30" fill="none" xmlns="http://www.w3.org/2000/svg">
<path d="M19.951 0.381999V21.005C19.951 22.2897 19.7187 23.465 19.254 24.531C18.8167 25.5697 18.1743 26.458 17.327 27.196C16.507 27.934 15.5093 28.508 14.334 28.918C13.1587 29.3007 11.8467 29.492 10.398 29.492C7.47333 29.492 5.20467 28.7677 3.592 27.319C2.00667 25.843 0.995333 23.916 0.558 21.538L6.38 20.349C6.59867 21.579 7.00867 22.5767 7.61 23.342C8.23867 24.1073 9.168 24.49 10.398 24.49C11.4367 24.49 12.243 24.162 12.817 23.506C13.4183 22.8227 13.719 21.784 13.719 20.39V5.425H4.289V0.381999H19.951Z" fill="#00D42F"/>
</svg>
